<?xml version="1.0" standalone="no"?>
<!DOCTYPE svg PUBLIC "-//W3C//DTD SVG 20010904//EN"
 "http://www.w3.org/TR/2001/REC-SVG-20010904/DTD/svg10.dtd">
<svg version="1.0" xmlns="http://www.w3.org/2000/svg"
 width="1072.000000pt" height="1072.000000pt" viewBox="0 0 1072.000000 1072.000000"
 preserveAspectRatio="xMidYMid meet">
<metadata>
Created by potrace 1.14, written by Peter Selinger 2001-2017
</metadata>
<g transform="translate(0.000000,1072.000000) scale(0.100000,-0.100000)"
fill="#000000" stroke="none">
<path d="M10666 9563 c-2 -2 -60 -16 -128 -29 -67 -14 -130 -28 -138 -31 -8
-3 -22 -7 -30 -8 -18 -3 -43 -9 -145 -35 -44 -12 -87 -22 -95 -24 -8 -2 -35
-9 -60 -16 -25 -7 -49 -13 -55 -14 -28 -7 -304 -91 -335 -103 -8 -3 -19 -7
-25 -9 -27 -7 -224 -77 -250 -89 -40 -18 -207 -85 -220 -89 -45 -11 -443 -212
-543 -274 -29 -17 -54 -32 -57 -32 -6 0 -184 -116 -219 -143 -16 -12 -34 -24
-40 -26 -6 -2 -13 -7 -16 -10 -3 -4 -50 -40 -105 -81 -55 -41 -102 -77 -105
-81 -3 -3 -43 -39 -90 -80 -110 -95 -256 -241 -349 -349 -118 -136 -121 -140
-121 -145 0 -3 -8 -13 -17 -23 -10 -10 -28 -31 -40 -48 -51 -68 -88 -120 -98
-135 -28 -45 -69 -105 -74 -109 -3 -3 -11 -14 -17 -25 -28 -51 -39 -70 -45
-75 -5 -4 -39 -62 -102 -170 -33 -57 -226 -440 -222 -440 2 0 -6 -21 -19 -47
-43 -86 -66 -142 -66 -157 0 -9 -3 -16 -8 -16 -7 0 -27 -51 -39 -97 -3 -13 -9
-23 -14 -23 -5 0 -9 -6 -9 -14 0 -8 -17 -58 -39 -112 -38 -99 -131 -350 -136
-369 -1 -5 -5 -17 -8 -25 -3 -8 -25 -71 -47 -140 -23 -69 -45 -134 -50 -145
-9 -21 -43 -123 -46 -140 -2 -12 -63 -203 -71 -225 -3 -8 -7 -19 -8 -25 -3
-11 -124 -393 -161 -504 -13 -40 -24 -78 -24 -83 0 -6 -6 -24 -14 -41 -11 -27
-37 -107 -122 -377 -4 -14 -9 -27 -9 -30 -1 -3 -4 -12 -8 -20 -3 -8 -13 -40
-22 -70 -9 -30 -20 -64 -25 -75 -5 -11 -14 -38 -20 -60 -6 -22 -15 -49 -19
-60 -8 -19 -122 -374 -136 -422 -9 -33 -17 -29 -56 24 -60 83 -179 302 -180
330 0 5 -6 17 -13 28 -7 11 -17 34 -21 50 -11 41 -11 42 -35 110 -36 103 -83
308 -95 415 -1 8 -5 33 -9 55 -3 22 -9 67 -12 100 -8 82 -13 578 -6 589 3 5 6
34 8 65 1 31 3 56 4 56 1 0 3 14 4 30 11 102 18 161 21 165 2 3 6 28 9 55 4
28 15 91 26 140 10 50 21 102 24 117 2 15 7 32 11 38 3 5 8 18 10 27 4 20 53
180 62 203 3 8 7 20 8 25 4 15 96 298 102 315 4 8 7 17 8 20 17 59 41 126 47
128 5 2 6 7 3 12 -2 4 6 35 20 69 13 34 24 65 24 69 3 25 240 711 262 757 6
12 11 27 13 35 2 8 8 29 15 45 6 17 19 50 27 75 9 25 20 54 25 65 16 38 110
290 114 305 2 8 11 33 20 55 25 59 33 79 31 86 0 3 4 12 10 20 6 8 14 27 18
42 6 24 4 28 -11 24 -10 -3 -52 -11 -93 -17 -117 -18 -119 -18 -138 -24 -9 -3
-33 -7 -52 -10 -50 -8 -85 -15 -152 -31 -32 -7 -61 -14 -63 -14 -3 -1 -6 -1
-7 -2 -2 0 -16 -3 -33 -5 -16 -3 -41 -9 -55 -14 -14 -5 -38 -11 -55 -14 -16
-2 -64 -14 -105 -26 -41 -11 -82 -23 -90 -25 -59 -13 -77 -19 -87 -28 -7 -5
-13 -7 -13 -4 0 3 -46 -10 -102 -29 -57 -20 -107 -36 -113 -37 -5 -2 -23 -8
-40 -14 -16 -7 -61 -24 -100 -38 -38 -15 -92 -37 -120 -49 -27 -13 -79 -36
-115 -52 -36 -15 -67 -31 -70 -34 -3 -3 -50 -27 -105 -55 -55 -27 -130 -69
-167 -92 -36 -24 -71 -43 -77 -43 -6 0 -11 -4 -11 -10 0 -5 -6 -10 -14 -10 -8
0 -16 -3 -18 -8 -1 -4 -36 -29 -75 -56 -40 -27 -73 -53 -73 -58 0 -4 -5 -8
-12 -8 -6 0 -37 -22 -67 -48 -31 -27 -67 -57 -80 -68 -108 -87 -346 -348 -446
-488 -22 -31 -45 -62 -50 -69 -13 -15 -159 -246 -169 -267 -3 -8 -19 -37 -35
-65 -81 -142 -285 -588 -273 -599 3 -3 -1 -6 -8 -6 -7 0 -11 -3 -7 -6 3 -3 -5
-30 -18 -59 -13 -30 -21 -56 -17 -59 3 -3 0 -6 -6 -6 -7 0 -11 -3 -10 -7 3 -8
-31 -105 -57 -168 -7 -16 -27 -77 -46 -135 -19 -58 -38 -108 -44 -112 -5 -4
-7 -8 -3 -8 4 0 -2 -26 -13 -57 -11 -32 -23 -69 -25 -82 -3 -13 -10 -33 -15
-43 -6 -11 -12 -27 -14 -36 -4 -20 -53 -180 -62 -202 -4 -8 -7 -17 -8 -20 -3
-11 -29 -95 -30 -100 -1 -3 -7 -25 -14 -50 -7 -25 -14 -52 -16 -60 -2 -8 -24
-94 -50 -190 -25 -96 -48 -182 -50 -190 -2 -8 -4 -15 -5 -15 -1 0 -3 -11 -6
-24 -3 -19 -31 -119 -50 -179 -6 -20 -7 -22 -46 -152 -22 -69 -41 -132 -43
-140 -7 -28 -87 -275 -90 -278 -8 -8 -69 47 -107 95 -52 68 -151 273 -132 273
4 0 2 6 -4 12 -6 7 -11 18 -11 23 -1 6 -6 28 -12 50 -6 22 -13 47 -14 55 -22
107 -35 175 -40 220 -4 30 -9 63 -11 74 -18 99 -25 760 -10 931 4 44 9 100 11
125 2 25 6 65 9 88 4 24 8 67 10 95 2 29 7 59 10 67 3 8 8 42 10 75 3 33 8 69
10 80 2 11 7 42 10 69 4 27 9 52 10 55 2 3 7 26 10 51 3 25 8 56 11 70 83 434
173 782 291 1124 l34 98 -138 -5 c-75 -3 -155 -8 -177 -12 -67 -9 -248 -47
-273 -56 -13 -5 -37 -11 -55 -14 -17 -4 -35 -11 -39 -18 -4 -7 -8 -9 -8 -5 0
8 -140 -40 -154 -53 -6 -5 -18 -9 -28 -9 -10 0 -18 -5 -18 -12 0 -6 -3 -9 -6
-6 -6 7 -189 -86 -215 -108 -8 -8 -19 -14 -23 -14 -7 0 -96 -58 -106 -69 -3
-4 -22 -17 -42 -31 -21 -14 -38 -28 -38 -32 0 -5 -4 -8 -9 -8 -39 0 -359 -339
-424 -447 -10 -18 -23 -33 -27 -33 -4 0 -10 -8 -14 -17 -6 -19 -18 -40 -52
-88 -44 -63 -145 -259 -189 -368 -14 -34 -30 -70 -35 -79 -16 -28 -105 -285
-114 -328 -2 -8 -6 -22 -9 -30 -6 -14 -25 -87 -32 -120 -2 -8 -13 -53 -24
-100 -27 -114 -69 -357 -77 -445 -2 -22 -7 -80 -11 -130 -10 -118 -10 -534 0
-655 11 -124 21 -218 32 -280 3 -14 7 -41 10 -60 12 -76 17 -98 36 -185 11
-49 22 -99 24 -110 24 -133 185 -634 217 -672 6 -7 8 -13 5 -13 -3 0 4 -24 17
-52 35 -82 39 -92 38 -101 -1 -4 2 -7 8 -7 5 0 10 -5 10 -11 0 -11 89 -204
110 -239 5 -8 23 -44 41 -80 58 -117 176 -297 202 -308 4 -2 7 -7 7 -12 0 -5
19 -29 43 -54 23 -25 47 -51 53 -58 23 -27 131 -125 184 -168 30 -25 57 -48
60 -52 3 -4 17 -13 30 -20 14 -8 57 -34 95 -60 68 -44 183 -105 275 -146 71
-31 225 -82 249 -82 11 0 21 -5 21 -11 0 -5 4 -8 9 -5 4 3 23 1 42 -4 32 -10
73 -17 129 -25 14 -2 25 -4 25 -5 0 -12 374 -17 460 -6 84 10 118 15 175 27
74 15 73 15 90 22 8 4 24 8 35 10 92 14 323 112 515 218 73 40 249 165 324
229 152 129 317 297 406 410 19 25 39 50 45 56 5 6 18 22 28 35 9 13 44 60 77
104 33 44 60 85 60 91 0 17 45 33 45 17 0 -5 4 -14 8 -20 5 -7 6 -13 3 -13 -3
0 8 -23 24 -50 17 -28 30 -53 30 -56 0 -18 180 -268 255 -354 42 -49 248 -250
255 -250 4 0 24 -16 46 -36 21 -19 51 -42 67 -50 15 -8 27 -19 27 -24 0 -6 5
-10 10 -10 6 0 43 -21 83 -48 40 -26 104 -62 142 -81 39 -18 78 -37 88 -42 45
-24 314 -119 352 -124 11 -1 20 -3 20 -4 0 -3 1 -3 105 -25 162 -34 230 -41
435 -41 161 0 212 3 335 20 68 9 274 59 315 76 17 7 35 14 40 14 12 2 28 8
115 45 89 38 166 76 225 110 28 17 57 33 65 37 28 13 175 116 178 124 2 5 8 9
13 9 8 0 35 20 64 47 8 7 16 13 18 13 13 0 233 212 322 310 277 306 535 739
746 1255 7 17 13 32 14 35 2 10 46 125 54 145 24 54 39 103 34 109 -4 3 0 6 7
6 7 0 11 3 7 6 -3 3 -1 18 5 33 11 27 86 265 92 291 2 8 11 40 19 70 37 131
49 176 52 190 2 8 16 56 30 105 15 50 29 97 30 105 7 28 66 235 72 250 3 8 7
20 8 26 2 5 24 84 50 175 27 90 48 170 48 177 0 6 5 12 10 12 6 0 8 3 5 6 -3
3 3 33 14 67 10 34 21 71 23 81 3 11 11 40 20 66 9 26 17 55 20 66 2 10 16 57
30 104 14 47 28 92 30 101 2 9 18 63 35 120 18 57 33 109 34 114 1 6 14 49 30
97 15 48 29 95 31 105 2 10 20 70 40 133 20 63 37 120 39 125 2 6 5 17 8 25 3
8 15 49 27 90 12 41 25 82 28 90 3 8 7 20 9 27 3 15 24 83 31 103 3 8 7 21 9
27 2 12 84 272 122 388 9 28 17 55 18 60 1 6 11 35 22 65 10 30 20 57 20 60 0
3 3 12 6 20 2 8 21 67 41 130 20 63 39 122 42 130 8 18 6 15 22 70 7 25 16 50
19 55 4 6 7 15 8 21 1 5 30 93 64 195 34 101 63 190 63 197 0 6 4 12 9 12 5 0
7 4 4 8 -2 4 1 21 8 37 20 46 38 99 39 113 0 6 3 12 7 12 3 0 6 8 7 18 2 13
136 402 160 462 4 8 7 17 8 20 2 9 45 125 54 145 23 54 51 129 51 139 0 6 6
22 13 36 7 14 23 54 36 90 23 64 36 97 61 155 8 17 14 32 15 35 1 3 5 14 10
25 4 11 17 42 27 69 11 27 29 70 40 95 12 25 23 51 24 56 1 6 18 44 37 86 l35
77 -23 0 c-13 0 -26 -3 -29 -5z"/>
</g>
</svg>
