<svg id="Layer_1" data-name="Layer 1" xmlns="http://www.w3.org/2000/svg" xmlns:xlink="http://www.w3.org/1999/xlink" viewBox="0 0 350.69 239.48"><defs><linearGradient id="linear-gradient" x1="89.24" y1="193.76" x2="89.24" y2="62.96" gradientTransform="matrix(1, 0, 0, -1, 0, 247)" gradientUnits="userSpaceOnUse"><stop offset="0" stop-color="#f38220"/><stop offset="1" stop-color="#f74d2f"/></linearGradient><linearGradient id="linear-gradient-2" x1="96.29" y1="193.76" x2="96.29" y2="62.96" xlink:href="#linear-gradient"/><linearGradient id="linear-gradient-3" x1="266.47" y1="234.08" x2="156.07" y2="-18" gradientTransform="matrix(1, 0, 0, -1, 0, 247)" gradientUnits="userSpaceOnUse"><stop offset="0" stop-color="#7349cd"/><stop offset="1" stop-color="#2c1464"/></linearGradient><linearGradient id="linear-gradient-4" x1="173.81" y1="164.78" x2="173.81" y2="78.3" gradientTransform="matrix(1, 0, 0, -1, 0, 247)" gradientUnits="userSpaceOnUse"><stop offset="0" stop-color="#2c1b55"/><stop offset="1" stop-color="#190a3e"/></linearGradient><linearGradient id="linear-gradient-5" x1="178.14" y1="271.89" x2="114.19" y2="67.27" gradientTransform="matrix(1, 0, 0, -1, 0, 247)" gradientUnits="userSpaceOnUse"><stop offset="0" stop-color="#f6532d"/><stop offset="1" stop-color="#d01b6c"/></linearGradient></defs><path d="M113.56,135.85c-10.91-6-11.33-46.15,1.53-82.4,0,0-34.6-3.17-47.62,38.68-8.64,27.77-2.37,53.21,8,73.14C90.76,196.12,108.11,155.25,113.56,135.85Z" transform="translate(-2.15 -2.76)" fill="url(#linear-gradient)"/><path d="M96.23,184l.08.05h0l0,0h0Z" transform="translate(-2.15 -2.76)" fill="url(#linear-gradient-2)"/><path d="M259.48,124.74c27.77-98.12,40.12-122,40.12-122-69.78,13.69-82,49-97,96.89-2.73,8.74-9.5,29.61-15.54,48.14-.43,1.32-.85,2.63-1.28,3.92-6.68,17.76-22.89,18.36-28.64,10.09,3,6.8,11.58,16.74,19.29,20.62C205,197.44,243.24,187,259.48,124.74Z" transform="translate(-2.15 -2.76)" fill="url(#linear-gradient-3)"/><path d="M184.21,82.22c-4.14,13.15-8.86,28.87-14,47.26a107.68,107.68,0,0,1-13.75,30.86s1.26,2.75,2.3,4.55c4,6.91,20.39,4.46,27-13.18.43-1.29.85-2.6,1.28-3.92l4.07-12.51C182.12,124.14,179,104,184.21,82.22Z" transform="translate(-2.15 -2.76)" fill="url(#linear-gradient-4)"/><path d="M170.22,129.48c19-68,32.23-99.57,32.23-99.57-58.79,9-68.41,37.51-81.14,77.82-14.84,59.42-30.08,74.55-44.69,59.65a42.46,42.46,0,0,0,20.67,18C124.34,196.16,156.65,178.18,170.22,129.48Z" transform="translate(-2.15 -2.76)" fill="url(#linear-gradient-5)"/><path d="M54.79,242.24c-7.12,0-12-4.43-12-11.68s4.89-11.67,12-11.67,12,4.42,12,11.67S61.91,242.24,54.79,242.24Zm0-18.9a7,7,0,0,0-7.16,7.22,6.9,6.9,0,0,0,7.16,7.2,7.21,7.21,0,0,0,0-14.42Z" transform="translate(-2.15 -2.76)" fill="#fff"/><path d="M97.49,241.7H92l-5.69-7.31H82.71v7.31h-5V219.43H88.3c5.37,0,8.24,3.6,8.24,7.51,0,2.89-.89,5.47-5.15,7l6.1,7.38Zm-14.78-18v6.5h5.66a3.09,3.09,0,0,0,3.27-3.12,3.27,3.27,0,0,0-3.33-3.38Z" transform="translate(-2.15 -2.76)" fill="#fff"/><path d="M114.33,219.43v17.72h11.13v4.55H109.38V219.43Z" transform="translate(-2.15 -2.76)" fill="#fff"/><path d="M146.15,219.43c7.66,0,11.06,5.15,11.06,11s-3.28,11.29-11.06,11.29H137V219.43Zm-4.23,17.69h4.23c4.83,0,6.16-3.56,6.16-6.78s-1.53-6.42-6.16-6.42h-4.23Z" transform="translate(-2.15 -2.76)" fill="#fff"/><path d="M205,226.24l-6.87,8.65h-.89l-6.64-8.72v15.56h-5V219.46h5.69l6.48,8.56,6.52-8.56H210v22.27h-5Z" transform="translate(-2.15 -2.76)" fill="#fff"/><path d="M234.25,242.24c-7.12,0-12-4.43-12-11.68s4.9-11.67,12-11.67,12,4.42,12,11.67S241.38,242.24,234.25,242.24Zm0-18.9a7,7,0,0,0-7.15,7.22,7.15,7.15,0,1,0,7.15-7.22Z" transform="translate(-2.15 -2.76)" fill="#fff"/><path d="M269.06,219.43c4.23,0,7.72,1.91,7.72,6a4.77,4.77,0,0,1-2.95,4.56,5.63,5.63,0,0,1,3.53,6.45c-.67,3.6-3.66,5.22-8.1,5.22H258.1V219.43Zm-6.1,8.65h6c1.94,0,2.89-.79,2.89-2.1s-.95-2.26-2.83-2.26H263Zm0,9.29h6.1c2.23,0,3.28-1,3.28-2.54s-1.15-2.61-3.33-2.61h-6v5.15Z" transform="translate(-2.15 -2.76)" fill="#fff"/><path d="M294.28,219.43h-4.93V241.7h4.93Z" transform="translate(-2.15 -2.76)" fill="#fff"/><path d="M313.21,219.43v17.72h11.12v4.55H308.25V219.43Z" transform="translate(-2.15 -2.76)" fill="#fff"/><path d="M352.85,241.7H335.91V219.43H352.4V224H340.77v4.3h11v4.35h-11v4.49h12.08Z" transform="translate(-2.15 -2.76)" fill="#fff"/><path d="M28,241.67H23.9l-4.77-12.44-4.61,12.44H10.45l-8.3-22.24H7.72l2.76,7.6,2,7.2,5-14.8h3.24l5.21,14.8,1.91-7.17,2.63-7.63H36Z" transform="translate(-2.15 -2.76)" fill="#fff"/><path d="M54.79,242.24c-7.12,0-12-4.43-12-11.68s4.89-11.67,12-11.67,12,4.42,12,11.67S61.91,242.24,54.79,242.24Zm0-18.9a7,7,0,0,0-7.16,7.22,6.9,6.9,0,0,0,7.16,7.2,7.21,7.21,0,0,0,0-14.42Z" transform="translate(-2.15 -2.76)" fill="#fff"/><path d="M97.49,241.7H92l-5.69-7.31H82.71v7.31h-5V219.43H88.3c5.37,0,8.24,3.6,8.24,7.51,0,2.89-.89,5.47-5.15,7l6.1,7.38Zm-14.78-18v6.5h5.66a3.09,3.09,0,0,0,3.27-3.12,3.27,3.27,0,0,0-3.33-3.38Z" transform="translate(-2.15 -2.76)" fill="#fff"/><path d="M114.33,219.43v17.72h11.13v4.55H109.38V219.43Z" transform="translate(-2.15 -2.76)" fill="#fff"/><path d="M146.15,219.43c7.66,0,11.06,5.15,11.06,11s-3.28,11.29-11.06,11.29H137V219.43Zm-4.23,17.69h4.23c4.83,0,6.16-3.56,6.16-6.78s-1.53-6.42-6.16-6.42h-4.23Z" transform="translate(-2.15 -2.76)" fill="#fff"/><path d="M205,226.24l-6.87,8.65h-.89l-6.64-8.72v15.56h-5V219.46h5.69l6.48,8.56,6.52-8.56H210v22.27h-5Z" transform="translate(-2.15 -2.76)" fill="#fff"/><path d="M234.25,242.24c-7.12,0-12-4.43-12-11.68s4.9-11.67,12-11.67,12,4.42,12,11.67S241.38,242.24,234.25,242.24Zm0-18.9a7,7,0,0,0-7.15,7.22,7.15,7.15,0,1,0,7.15-7.22Z" transform="translate(-2.15 -2.76)" fill="#fff"/><path d="M269.06,219.43c4.23,0,7.72,1.91,7.72,6a4.77,4.77,0,0,1-2.95,4.56,5.63,5.63,0,0,1,3.53,6.45c-.67,3.6-3.66,5.22-8.1,5.22H258.1V219.43Zm-6.1,8.65h6c1.94,0,2.89-.79,2.89-2.1s-.95-2.26-2.83-2.26H263Zm0,9.29h6.1c2.23,0,3.28-1,3.28-2.54s-1.15-2.61-3.33-2.61h-6v5.15Z" transform="translate(-2.15 -2.76)" fill="#fff"/><path d="M294.28,219.43h-4.93V241.7h4.93Z" transform="translate(-2.15 -2.76)" fill="#fff"/><path d="M313.21,219.43v17.72h11.12v4.55H308.25V219.43Z" transform="translate(-2.15 -2.76)" fill="#fff"/><path d="M352.85,241.7H335.91V219.43H352.4V224H340.77v4.3h11v4.35h-11v4.49h12.08Z" transform="translate(-2.15 -2.76)" fill="#fff"/></svg>