<svg id="Layer_1" data-name="Layer 1" xmlns="http://www.w3.org/2000/svg" xmlns:xlink="http://www.w3.org/1999/xlink" viewBox="0 0 350.69 239.48"><defs><linearGradient id="linear-gradient" x1="87.09" y1="191.52" x2="87.09" y2="60.72" gradientTransform="matrix(1, 0, 0, -1, 0, 242)" gradientUnits="userSpaceOnUse"><stop offset="0" stop-color="#f38220"/><stop offset="1" stop-color="#f74d2f"/></linearGradient><linearGradient id="linear-gradient-2" x1="94.13" y1="191.52" x2="94.13" y2="60.72" xlink:href="#linear-gradient"/><linearGradient id="linear-gradient-3" x1="264.32" y1="231.84" x2="153.92" y2="-20.24" gradientTransform="matrix(1, 0, 0, -1, 0, 242)" gradientUnits="userSpaceOnUse"><stop offset="0" stop-color="#7349cd"/><stop offset="1" stop-color="#2c1464"/></linearGradient><linearGradient id="linear-gradient-4" x1="171.65" y1="162.54" x2="171.65" y2="76.06" gradientTransform="matrix(1, 0, 0, -1, 0, 242)" gradientUnits="userSpaceOnUse"><stop offset="0" stop-color="#2c1b55"/><stop offset="1" stop-color="#190a3e"/></linearGradient><linearGradient id="linear-gradient-5" x1="175.98" y1="269.65" x2="112.04" y2="65.03" gradientTransform="matrix(1, 0, 0, -1, 0, 242)" gradientUnits="userSpaceOnUse"><stop offset="0" stop-color="#f6532d"/><stop offset="1" stop-color="#d01b6c"/></linearGradient></defs><path d="M111.41,133.09c-10.91-6-11.34-46.15,1.53-82.4,0,0-34.6-3.17-47.63,38.68-8.64,27.77-2.37,53.21,8,73.14C88.61,193.36,106,152.49,111.41,133.09Z" fill="url(#linear-gradient)"/><path d="M94.07,181.19l.09.05h0l0,0h0Z" fill="url(#linear-gradient-2)"/><path d="M257.32,122C285.09,23.87,297.45,0,297.45,0c-69.78,13.69-82,49-97,96.89-2.73,8.74-9.51,29.62-15.54,48.14L183.65,149C177,166.71,160.76,167.32,155,159c2.95,6.8,11.59,16.74,19.29,20.62C202.82,194.68,241.09,184.26,257.32,122Z" fill="url(#linear-gradient-3)"/><path d="M182.06,79.46c-4.15,13.15-8.86,28.87-14,47.26a107.69,107.69,0,0,1-13.76,30.86s1.26,2.75,2.3,4.55c4,6.91,20.4,4.47,27-13.18l1.28-3.92L189,132.52C180,121.39,176.84,101.22,182.06,79.46Z" fill="url(#linear-gradient-4)"/><path d="M168.07,126.72c19-68,32.22-99.57,32.22-99.57-58.78,9-68.4,37.52-81.13,77.82-14.85,59.42-30.09,74.55-44.7,59.65a42.46,42.46,0,0,0,20.67,18C122.19,193.4,154.49,175.43,168.07,126.72Z" fill="url(#linear-gradient-5)"/><path d="M52.63,239.48c-7.11,0-12-4.43-12-11.68s4.89-11.67,12-11.67,12,4.42,12,11.67S59.75,239.48,52.63,239.48Zm0-18.9a7,7,0,0,0-7.15,7.22,6.89,6.89,0,0,0,7.15,7.2,7.21,7.21,0,0,0,0-14.42Z" fill="#4c2c93"/><path d="M95.34,238.94H89.83l-5.68-7.31H80.56v7.31h-5V216.67H86.15c5.37,0,8.23,3.6,8.23,7.51,0,2.89-.89,5.47-5.15,7l6.11,7.38Zm-14.78-18v6.5h5.65a3.1,3.1,0,0,0,3.28-3.12,3.28,3.28,0,0,0-3.34-3.38Z" fill="#4c2c93"/><path d="M112.18,216.67v17.72h11.13v4.55H107.22V216.67Z" fill="#4c2c93"/><path d="M144,216.67c7.66,0,11.06,5.15,11.06,11s-3.27,11.29-11.06,11.29h-9.12V216.67Zm-4.22,17.69H144c4.84,0,6.17-3.56,6.17-6.78s-1.53-6.42-6.17-6.42h-4.22Z" fill="#4c2c93"/><path d="M202.86,223.48,196,232.13h-.89l-6.64-8.72V239h-5V216.7h5.68l6.49,8.56,6.52-8.56h5.62V239h-5Z" fill="#4c2c93"/><path d="M232.1,239.48c-7.12,0-12-4.43-12-11.68s4.89-11.67,12-11.67,12,4.42,12,11.67S239.22,239.48,232.1,239.48Zm0-18.9a7,7,0,0,0-7.16,7.22,7.15,7.15,0,1,0,7.16-7.22Z" fill="#4c2c93"/><path d="M266.91,216.67c4.22,0,7.72,1.91,7.72,6a4.77,4.77,0,0,1-2.95,4.56,5.61,5.61,0,0,1,3.52,6.45c-.66,3.6-3.65,5.22-8.1,5.22H255.94V216.67Zm-6.11,8.65h6c1.94,0,2.9-.79,2.9-2.1s-1-2.26-2.83-2.26H260.8Zm0,9.29h6.11c2.23,0,3.28-1,3.28-2.54s-1.15-2.61-3.34-2.61h-6v5.15Z" fill="#4c2c93"/><path d="M292.12,216.67h-4.93v22.27h4.93Z" fill="#4c2c93"/><path d="M311.06,216.67v17.72h11.12v4.55H306.1V216.67Z" fill="#4c2c93"/><path d="M350.69,238.94H333.75V216.67h16.5v4.55H338.61v4.3h11v4.35h-11v4.49h12.08Z" fill="#4c2c93"/><path d="M25.81,238.91H21.74L17,226.47l-4.62,12.44H8.29L0,216.67H5.56l2.77,7.6,2,7.2,5-14.8h3.24l5.22,14.8,1.9-7.17,2.64-7.63h5.56Z" fill="#4c2c93"/><path d="M52.63,239.48c-7.11,0-12-4.43-12-11.68s4.89-11.67,12-11.67,12,4.42,12,11.67S59.75,239.48,52.63,239.48Zm0-18.9a7,7,0,0,0-7.15,7.22,6.89,6.89,0,0,0,7.15,7.2,7.21,7.21,0,0,0,0-14.42Z" fill="#4c2c93"/><path d="M95.34,238.94H89.83l-5.68-7.31H80.56v7.31h-5V216.67H86.15c5.37,0,8.23,3.6,8.23,7.51,0,2.89-.89,5.47-5.15,7l6.11,7.38Zm-14.78-18v6.5h5.65a3.1,3.1,0,0,0,3.28-3.12,3.28,3.28,0,0,0-3.34-3.38Z" fill="#4c2c93"/><path d="M112.18,216.67v17.72h11.13v4.55H107.22V216.67Z" fill="#4c2c93"/><path d="M144,216.67c7.66,0,11.06,5.15,11.06,11s-3.27,11.29-11.06,11.29h-9.12V216.67Zm-4.22,17.69H144c4.84,0,6.17-3.56,6.17-6.78s-1.53-6.42-6.17-6.42h-4.22Z" fill="#4c2c93"/><path d="M202.86,223.48,196,232.13h-.89l-6.64-8.72V239h-5V216.7h5.68l6.49,8.56,6.52-8.56h5.62V239h-5Z" fill="#4c2c93"/><path d="M232.1,239.48c-7.12,0-12-4.43-12-11.68s4.89-11.67,12-11.67,12,4.42,12,11.67S239.22,239.48,232.1,239.48Zm0-18.9a7,7,0,0,0-7.16,7.22,7.15,7.15,0,1,0,7.16-7.22Z" fill="#4c2c93"/><path d="M266.91,216.67c4.22,0,7.72,1.91,7.72,6a4.77,4.77,0,0,1-2.95,4.56,5.61,5.61,0,0,1,3.52,6.45c-.66,3.6-3.65,5.22-8.1,5.22H255.94V216.67Zm-6.11,8.65h6c1.94,0,2.9-.79,2.9-2.1s-1-2.26-2.83-2.26H260.8Zm0,9.29h6.11c2.23,0,3.28-1,3.28-2.54s-1.15-2.61-3.34-2.61h-6v5.15Z" fill="#4c2c93"/><path d="M292.12,216.67h-4.93v22.27h4.93Z" fill="#4c2c93"/><path d="M311.06,216.67v17.72h11.12v4.55H306.1V216.67Z" fill="#4c2c93"/><path d="M350.69,238.94H333.75V216.67h16.5v4.55H338.61v4.3h11v4.35h-11v4.49h12.08Z" fill="#4c2c93"/></svg>