<svg id="Layer_1" data-name="Layer 1" xmlns="http://www.w3.org/2000/svg" xmlns:xlink="http://www.w3.org/1999/xlink" viewBox="0 0 67.4 53"><defs><linearGradient id="linear-gradient" x1="8.68" y1="41.6" x2="8.68" y2="4.27" gradientTransform="matrix(1, 0, 0, -1, 0, 57)" gradientUnits="userSpaceOnUse"><stop offset="0" stop-color="#f38220"/><stop offset="1" stop-color="#f74d2f"/></linearGradient><linearGradient id="linear-gradient-2" x1="10.69" y1="41.6" x2="10.69" y2="4.27" xlink:href="#linear-gradient"/><linearGradient id="linear-gradient-3" x1="59.25" y1="53.1" x2="27.74" y2="-18.83" gradientTransform="matrix(1, 0, 0, -1, 0, 57)" gradientUnits="userSpaceOnUse"><stop offset="0" stop-color="#7349cd"/><stop offset="1" stop-color="#2c1464"/></linearGradient><linearGradient id="linear-gradient-4" x1="32.81" y1="33.33" x2="32.81" y2="8.65" gradientTransform="matrix(1, 0, 0, -1, 0, 57)" gradientUnits="userSpaceOnUse"><stop offset="0" stop-color="#2c1b55"/><stop offset="1" stop-color="#190a3e"/></linearGradient><linearGradient id="linear-gradient-5" x1="34.04" y1="63.89" x2="15.8" y2="5.5" gradientTransform="matrix(1, 0, 0, -1, 0, 57)" gradientUnits="userSpaceOnUse"><stop offset="0" stop-color="#f6532d"/><stop offset="1" stop-color="#d01b6c"/></linearGradient></defs><path d="M15.62,39c-3.12-1.73-3.24-13.17.43-23.52,0,0-9.87-.9-13.59,11C0,34.42,1.79,41.68,4.76,47.37,9.11,56.17,14.06,44.51,15.62,39Z" transform="translate(-1.3 -1)" fill="#777a8a"/><path d="M15.62,39c-3.12-1.73-3.24-13.17.43-23.52,0,0-9.87-.9-13.59,11C0,34.42,1.79,41.68,4.76,47.37,9.11,56.17,14.06,44.51,15.62,39Z" transform="translate(-1.3 -1)" fill="url(#linear-gradient)"/><path d="M10.67,52.7h0Z" transform="translate(-1.3 -1)" fill="#777a8a"/><path d="M10.67,52.7h0Z" transform="translate(-1.3 -1)" fill="url(#linear-gradient-2)"/><path d="M57.25,35.8C65.17,7.81,68.7,1,68.7,1,48.79,4.91,45.31,15,41,28.65c-.78,2.49-2.71,8.45-4.44,13.73l-.36,1.12c-1.91,5.07-6.53,5.24-8.18,2.88a14.16,14.16,0,0,0,5.51,5.88C41.7,56.55,52.62,53.57,57.25,35.8Z" transform="translate(-1.3 -1)" fill="#fff"/><path d="M57.25,35.8C65.17,7.81,68.7,1,68.7,1,48.79,4.91,45.31,15,41,28.65c-.78,2.49-2.71,8.45-4.44,13.73l-.36,1.12c-1.91,5.07-6.53,5.24-8.18,2.88a14.16,14.16,0,0,0,5.51,5.88C41.7,56.55,52.62,53.57,57.25,35.8Z" transform="translate(-1.3 -1)" fill="url(#linear-gradient-3)"/><path d="M35.77,23.67c-1.18,3.76-2.52,8.24-4,13.49A30.57,30.57,0,0,1,27.86,46s.36.79.65,1.3c1.14,2,5.82,1.27,7.72-3.76l.36-1.12c.39-1.17.78-2.37,1.16-3.57C35.18,35.63,34.29,29.88,35.77,23.67Z" transform="translate(-1.3 -1)" fill="#777a8a"/><path d="M35.77,23.67c-1.18,3.76-2.52,8.24-4,13.49A30.57,30.57,0,0,1,27.86,46s.36.79.65,1.3c1.14,2,5.82,1.27,7.72-3.76l.36-1.12c.39-1.17.78-2.37,1.16-3.57C35.18,35.63,34.29,29.88,35.77,23.67Z" transform="translate(-1.3 -1)" fill="url(#linear-gradient-4)"/><path d="M31.78,37.16C37.2,17.75,41,8.75,41,8.75,24.2,11.31,21.46,19.45,17.83,31c-4.24,17-8.59,21.27-12.76,17A12.13,12.13,0,0,0,11,53.12C18.69,56.18,27.91,51.05,31.78,37.16Z" transform="translate(-1.3 -1)" fill="#fff"/><path d="M31.78,37.16C37.2,17.75,41,8.75,41,8.75,24.2,11.31,21.46,19.45,17.83,31c-4.24,17-8.59,21.27-12.76,17A12.13,12.13,0,0,0,11,53.12C18.69,56.18,27.91,51.05,31.78,37.16Z" transform="translate(-1.3 -1)" fill="url(#linear-gradient-5)"/></svg>