<svg id="Layer_1" data-name="Layer 1" xmlns="http://www.w3.org/2000/svg" xmlns:xlink="http://www.w3.org/1999/xlink" viewBox="0 0 383.85 53"><defs><linearGradient id="linear-gradient" x1="7.95" y1="41.6" x2="7.95" y2="4.27" gradientTransform="matrix(1, 0, 0, -1, 0, 57)" gradientUnits="userSpaceOnUse"><stop offset="0" stop-color="#f38220"/><stop offset="1" stop-color="#f74d2f"/></linearGradient><linearGradient id="linear-gradient-2" x1="9.96" y1="41.6" x2="9.96" y2="4.27" xlink:href="#linear-gradient"/><linearGradient id="linear-gradient-3" x1="58.52" y1="53.1" x2="27.02" y2="-18.83" gradientTransform="matrix(1, 0, 0, -1, 0, 57)" gradientUnits="userSpaceOnUse"><stop offset="0" stop-color="#7349cd"/><stop offset="1" stop-color="#2c1464"/></linearGradient><linearGradient id="linear-gradient-4" x1="32.08" y1="33.33" x2="32.08" y2="8.65" gradientTransform="matrix(1, 0, 0, -1, 0, 57)" gradientUnits="userSpaceOnUse"><stop offset="0" stop-color="#2c1b55"/><stop offset="1" stop-color="#190a3e"/></linearGradient><linearGradient id="linear-gradient-5" x1="33.32" y1="63.89" x2="15.07" y2="5.5" gradientTransform="matrix(1, 0, 0, -1, 0, 57)" gradientUnits="userSpaceOnUse"><stop offset="0" stop-color="#f6532d"/><stop offset="1" stop-color="#d01b6c"/></linearGradient></defs><path d="M14.89,39c-3.11-1.73-3.23-13.17.44-23.52,0,0-9.88-.9-13.59,11C-.73,34.42,1.06,41.68,4,47.37,8.39,56.17,13.34,44.51,14.89,39Z" transform="translate(-0.58 -1)" fill="#777a8a"/><path d="M14.89,39c-3.11-1.73-3.23-13.17.44-23.52,0,0-9.88-.9-13.59,11C-.73,34.42,1.06,41.68,4,47.37,8.39,56.17,13.34,44.51,14.89,39Z" transform="translate(-0.58 -1)" fill="url(#linear-gradient)"/><path d="M9.94,52.7h0Z" transform="translate(-0.58 -1)" fill="#777a8a"/><path d="M9.94,52.7h0Z" transform="translate(-0.58 -1)" fill="url(#linear-gradient-2)"/><path d="M56.52,35.8C64.45,7.81,68,1,68,1,48.06,4.91,44.59,15,40.3,28.65c-.78,2.49-2.71,8.45-4.43,13.73-.12.38-.25.75-.37,1.12-1.9,5.07-6.53,5.24-8.17,2.88a14.14,14.14,0,0,0,5.5,5.88C41,56.55,51.89,53.57,56.52,35.8Z" transform="translate(-0.58 -1)" fill="#fff"/><path d="M56.52,35.8C64.45,7.81,68,1,68,1,48.06,4.91,44.59,15,40.3,28.65c-.78,2.49-2.71,8.45-4.43,13.73-.12.38-.25.75-.37,1.12-1.9,5.07-6.53,5.24-8.17,2.88a14.14,14.14,0,0,0,5.5,5.88C41,56.55,51.89,53.57,56.52,35.8Z" transform="translate(-0.58 -1)" fill="url(#linear-gradient-3)"/><path d="M35.05,23.67c-1.18,3.76-2.53,8.24-4,13.49A30.58,30.58,0,0,1,27.13,46s.36.79.66,1.3c1.13,2,5.82,1.27,7.71-3.76.12-.37.25-.74.37-1.12L37,38.81C34.45,35.63,33.56,29.88,35.05,23.67Z" transform="translate(-0.58 -1)" fill="#777a8a"/><path d="M35.05,23.67c-1.18,3.76-2.53,8.24-4,13.49A30.58,30.58,0,0,1,27.13,46s.36.79.66,1.3c1.13,2,5.82,1.27,7.71-3.76.12-.37.25-.74.37-1.12L37,38.81C34.45,35.63,33.56,29.88,35.05,23.67Z" transform="translate(-0.58 -1)" fill="url(#linear-gradient-4)"/><path d="M31.06,37.16c5.41-19.41,9.19-28.41,9.19-28.41C23.48,11.31,20.73,19.45,17.1,31c-4.23,17-8.58,21.27-12.75,17a12.05,12.05,0,0,0,5.9,5.15C18,56.18,27.18,51.05,31.06,37.16Z" transform="translate(-0.58 -1)" fill="#fff"/><path d="M31.06,37.16c5.41-19.41,9.19-28.41,9.19-28.41C23.48,11.31,20.73,19.45,17.1,31c-4.23,17-8.58,21.27-12.75,17a12.05,12.05,0,0,0,5.9,5.15C18,56.18,27.18,51.05,31.06,37.16Z" transform="translate(-0.58 -1)" fill="url(#linear-gradient-5)"/><path d="M131.14,41.69c-6,0-10.22-3.76-10.22-9.93s4.16-9.92,10.22-9.92,10.2,3.76,10.2,9.92S137.18,41.69,131.14,41.69Zm0-16.06a5.93,5.93,0,0,0-6.08,6.13,6.08,6.08,0,1,0,12.15,0A5.86,5.86,0,0,0,131.14,25.63Z" transform="translate(-0.58 -1)" fill="#fff"/><path d="M167.42,41.23h-4.67L157.92,35h-3.06v6.22h-4.21V22.3h9c4.57,0,7,3.06,7,6.38,0,2.47-.75,4.65-4.38,6l5.19,6.28Zm-12.56-15.3v5.52h4.81a2.63,2.63,0,0,0,2.78-2.65,2.77,2.77,0,0,0-2.83-2.87Z" transform="translate(-0.58 -1)" fill="#fff"/><path d="M181.74,22.3V37.36h9.45v3.87H177.52V22.3Z" transform="translate(-0.58 -1)" fill="#fff"/><path d="M208.77,22.3c6.51,0,9.4,4.38,9.4,9.33s-2.78,9.6-9.4,9.6H201V22.3Zm-3.59,15h3.59c4.11,0,5.24-3,5.24-5.76s-1.3-5.46-5.24-5.46h-3.59Z" transform="translate(-0.58 -1)" fill="#fff"/><path d="M258.8,28.09,253,35.44h-.75L246.56,28V41.26h-4.21V22.33h4.83l5.52,7.27,5.53-7.27H263V41.26H258.8Z" transform="translate(-0.58 -1)" fill="#fff"/><path d="M283.64,41.69c-6.05,0-10.21-3.76-10.21-9.93s4.16-9.92,10.21-9.92,10.21,3.76,10.21,9.92S289.7,41.69,283.64,41.69Zm0-16.06a5.94,5.94,0,0,0-6.08,6.13,6.08,6.08,0,1,0,12.16,0A5.87,5.87,0,0,0,283.64,25.63Z" transform="translate(-0.58 -1)" fill="#fff"/><path d="M313.23,22.3c3.58,0,6.56,1.63,6.56,5.14a4.05,4.05,0,0,1-2.51,3.87,4.77,4.77,0,0,1,3,5.48c-.56,3.06-3.1,4.44-6.88,4.44h-9.48V22.3ZM308,29.66h5.13c1.65,0,2.46-.68,2.46-1.79s-.81-1.92-2.4-1.92H308Zm0,7.89h5.19c1.89,0,2.78-.84,2.78-2.16s-1-2.22-2.83-2.22h-5.13v4.38Z" transform="translate(-0.58 -1)" fill="#fff"/><path d="M334.65,22.3h-4.19V41.23h4.19Z" transform="translate(-0.58 -1)" fill="#fff"/><path d="M350.74,22.3V37.36h9.45v3.87H346.53V22.3Z" transform="translate(-0.58 -1)" fill="#fff"/><path d="M384.42,41.23H370V22.3h14v3.87h-9.89v3.65h9.32v3.7h-9.32v3.82h10.26Z" transform="translate(-0.58 -1)" fill="#fff"/><polygon points="107.76 40.2 104.31 40.2 100.26 29.63 96.34 40.2 92.88 40.2 85.83 21.3 90.56 21.3 92.91 27.77 94.61 33.88 98.85 21.3 101.61 21.3 106.04 33.88 107.65 27.79 109.89 21.3 114.62 21.3 107.76 40.2" fill="#fff"/><path d="M131.14,41.69c-6,0-10.22-3.76-10.22-9.93s4.16-9.92,10.22-9.92,10.2,3.76,10.2,9.92S137.18,41.69,131.14,41.69Zm0-16.06a5.93,5.93,0,0,0-6.08,6.13,6.08,6.08,0,1,0,12.15,0A5.86,5.86,0,0,0,131.14,25.63Z" transform="translate(-0.58 -1)" fill="#fff"/><path d="M167.42,41.23h-4.67L157.92,35h-3.06v6.22h-4.21V22.3h9c4.57,0,7,3.06,7,6.38,0,2.47-.75,4.65-4.38,6l5.19,6.28Zm-12.56-15.3v5.52h4.81a2.63,2.63,0,0,0,2.78-2.65,2.77,2.77,0,0,0-2.83-2.87Z" transform="translate(-0.58 -1)" fill="#fff"/><polygon points="181.16 21.3 181.16 36.36 190.62 36.36 190.62 40.23 176.95 40.23 176.95 21.3 181.16 21.3" fill="#fff"/><path d="M208.77,22.3c6.51,0,9.4,4.38,9.4,9.33s-2.78,9.6-9.4,9.6H201V22.3Zm-3.59,15h3.59c4.11,0,5.24-3,5.24-5.76s-1.3-5.46-5.24-5.46h-3.59Z" transform="translate(-0.58 -1)" fill="#fff"/><polygon points="258.22 27.09 252.39 34.44 251.63 34.44 245.99 27.03 245.99 40.26 241.78 40.26 241.78 21.33 246.61 21.33 252.12 28.6 257.66 21.33 262.44 21.33 262.44 40.26 258.22 40.26 258.22 27.09" fill="#fff"/><path d="M283.64,41.69c-6.05,0-10.21-3.76-10.21-9.93s4.16-9.92,10.21-9.92,10.21,3.76,10.21,9.92S289.7,41.69,283.64,41.69Zm0-16.06a5.94,5.94,0,0,0-6.08,6.13,6.08,6.08,0,1,0,12.16,0A5.87,5.87,0,0,0,283.64,25.63Z" transform="translate(-0.58 -1)" fill="#fff"/><path d="M313.23,22.3c3.58,0,6.56,1.63,6.56,5.14a4.05,4.05,0,0,1-2.51,3.87,4.77,4.77,0,0,1,3,5.48c-.56,3.06-3.1,4.44-6.88,4.44h-9.48V22.3ZM308,29.66h5.13c1.65,0,2.46-.68,2.46-1.79s-.81-1.92-2.4-1.92H308Zm0,7.89h5.19c1.89,0,2.78-.84,2.78-2.16s-1-2.22-2.83-2.22h-5.13v4.38Z" transform="translate(-0.58 -1)" fill="#fff"/><rect x="329.89" y="21.3" width="4.19" height="18.93" fill="#fff"/><polygon points="350.17 21.3 350.17 36.36 359.62 36.36 359.62 40.23 345.95 40.23 345.95 21.3 350.17 21.3" fill="#fff"/><polygon points="383.85 40.23 369.45 40.23 369.45 21.3 383.47 21.3 383.47 25.17 373.58 25.17 373.58 28.82 382.9 28.82 382.9 32.52 373.58 32.52 373.58 36.34 383.85 36.34 383.85 40.23" fill="#fff"/></svg>