<svg id="Layer_1" data-name="Layer 1" xmlns="http://www.w3.org/2000/svg" xmlns:xlink="http://www.w3.org/1999/xlink" viewBox="0 0 451.69 62.37"><defs><linearGradient id="linear-gradient" x1="8.68" y1="47.05" x2="8.68" y2="3.13" gradientTransform="matrix(1, 0, 0, -1, 0, 64)" gradientUnits="userSpaceOnUse"><stop offset="0" stop-color="#f38220"/><stop offset="1" stop-color="#f74d2f"/></linearGradient><linearGradient id="linear-gradient-2" x1="11.04" y1="47.05" x2="11.04" y2="3.13" xlink:href="#linear-gradient"/><linearGradient id="linear-gradient-3" x1="68.19" y1="60.59" x2="31.12" y2="-24.05" gradientTransform="matrix(1, 0, 0, -1, 0, 64)" gradientUnits="userSpaceOnUse"><stop offset="0" stop-color="#7349cd"/><stop offset="1" stop-color="#2c1464"/></linearGradient><linearGradient id="linear-gradient-4" x1="37.07" y1="37.32" x2="37.07" y2="8.28" gradientTransform="matrix(1, 0, 0, -1, 0, 64)" gradientUnits="userSpaceOnUse"><stop offset="0" stop-color="#2c1b55"/><stop offset="1" stop-color="#190a3e"/></linearGradient><linearGradient id="linear-gradient-5" x1="38.53" y1="73.28" x2="17.06" y2="4.58" gradientTransform="matrix(1, 0, 0, -1, 0, 64)" gradientUnits="userSpaceOnUse"><stop offset="0" stop-color="#f6532d"/><stop offset="1" stop-color="#d01b6c"/></linearGradient></defs><path d="M16.84,44.69c-3.66-2-3.8-15.5.52-27.67,0,0-11.62-1.07-16,13-2.9,9.32-.8,17.86,2.69,24.55C9.19,64.92,15,51.2,16.84,44.69Z" transform="translate(0)" fill="#777a8a"/><path d="M16.84,44.69c-3.66-2-3.8-15.5.52-27.67,0,0-11.62-1.07-16,13-2.9,9.32-.8,17.86,2.69,24.55C9.19,64.92,15,51.2,16.84,44.69Z" transform="translate(0)" fill="url(#linear-gradient)"/><path d="M11,60.84h0Z" transform="translate(0)" fill="#777a8a"/><path d="M11,60.84h0Z" transform="translate(0)" fill="url(#linear-gradient-2)"/><path d="M65.84,41C75.16,8,79.31,0,79.31,0,55.88,4.6,51.79,16.44,46.75,32.53c-.92,2.94-3.19,9.95-5.22,16.16-.15.45-.29.89-.43,1.32-2.25,6-7.69,6.17-9.62,3.39A16.63,16.63,0,0,0,38,60.32C47.54,65.37,60.39,61.87,65.84,41Z" transform="translate(0)" fill="#fff"/><path d="M65.84,41C75.16,8,79.31,0,79.31,0,55.88,4.6,51.79,16.44,46.75,32.53c-.92,2.94-3.19,9.95-5.22,16.16-.15.45-.29.89-.43,1.32-2.25,6-7.69,6.17-9.62,3.39A16.63,16.63,0,0,0,38,60.32C47.54,65.37,60.39,61.87,65.84,41Z" transform="translate(0)" fill="url(#linear-gradient-3)"/><path d="M40.57,26.68c-1.4,4.42-3,9.69-4.7,15.87a36.18,36.18,0,0,1-4.62,10.36s.42.92.77,1.53c1.33,2.32,6.85,1.5,9.08-4.43.14-.43.29-.87.43-1.32L42.9,44.5C39.86,40.76,38.81,34,40.57,26.68Z" transform="translate(0)" fill="#777a8a"/><path d="M40.57,26.68c-1.4,4.42-3,9.69-4.7,15.87a36.18,36.18,0,0,1-4.62,10.36s.42.92.77,1.53c1.33,2.32,6.85,1.5,9.08-4.43.14-.43.29-.87.43-1.32L42.9,44.5C39.86,40.76,38.81,34,40.57,26.68Z" transform="translate(0)" fill="url(#linear-gradient-4)"/><path d="M35.87,42.55C42.24,19.72,46.69,9.12,46.69,9.12c-19.74,3-23,12.59-27.24,26.13-5,20-10.11,25-15,20a14.24,14.24,0,0,0,6.94,6.06C20.46,64.94,31.31,58.9,35.87,42.55Z" transform="translate(0)" fill="#fff"/><path d="M35.87,42.55C42.24,19.72,46.69,9.12,46.69,9.12c-19.74,3-23,12.59-27.24,26.13-5,20-10.11,25-15,20a14.24,14.24,0,0,0,6.94,6.06C20.46,64.94,31.31,58.9,35.87,42.55Z" transform="translate(0)" fill="url(#linear-gradient-5)"/><path d="M153.63,47.88c-7.11,0-12-4.43-12-11.68s4.89-11.68,12-11.68,12,4.42,12,11.68S160.75,47.88,153.63,47.88Zm0-18.9a7,7,0,0,0-7.15,7.22,7.15,7.15,0,1,0,14.3,0A6.9,6.9,0,0,0,153.63,29Z" transform="translate(0)" fill="#4c2c93"/><path d="M196.34,47.34h-5.51L185.15,40h-3.59v7.31h-5V25.07h10.55c5.37,0,8.23,3.59,8.23,7.51,0,2.89-.89,5.47-5.15,7L196.34,47Zm-14.78-18v6.5h5.65a3.1,3.1,0,0,0,3.28-3.12,3.28,3.28,0,0,0-3.34-3.38Z" transform="translate(0)" fill="#4c2c93"/><path d="M213.18,25.07V42.79h11.13v4.55H208.22V25.07Z" transform="translate(0)" fill="#4c2c93"/><path d="M245,25.07c7.66,0,11.06,5.15,11.06,11S252.78,47.34,245,47.34h-9.12V25.07Zm-4.22,17.69H245c4.84,0,6.17-3.57,6.17-6.78s-1.53-6.43-6.17-6.43h-4.22Z" transform="translate(0)" fill="#4c2c93"/><path d="M303.86,31.88,297,40.53h-.89l-6.64-8.72V47.37h-5V25.1h5.68l6.49,8.56,6.52-8.56h5.62V47.37h-5Z" transform="translate(0)" fill="#4c2c93"/><path d="M333.1,47.88c-7.12,0-12-4.43-12-11.68s4.89-11.68,12-11.68,12,4.42,12,11.68S340.22,47.88,333.1,47.88Zm0-18.9a7,7,0,0,0-7.16,7.22,7.15,7.15,0,1,0,14.3,0A6.9,6.9,0,0,0,333.1,29Z" transform="translate(0)" fill="#4c2c93"/><path d="M367.91,25.07c4.22,0,7.72,1.91,7.72,6a4.77,4.77,0,0,1-2.95,4.56,5.61,5.61,0,0,1,3.52,6.45c-.66,3.6-3.65,5.22-8.1,5.22H356.94V25.07Zm-6.11,8.65h6c1.94,0,2.9-.79,2.9-2.1s-1-2.26-2.83-2.26H361.8Zm0,9.29h6.11c2.23,0,3.28-1,3.28-2.54s-1.15-2.61-3.34-2.61h-6V43Z" transform="translate(0)" fill="#4c2c93"/><path d="M393.12,25.07h-4.93V47.34h4.93Z" transform="translate(0)" fill="#4c2c93"/><path d="M412.06,25.07V42.79h11.12v4.55H407.1V25.07Z" transform="translate(0)" fill="#4c2c93"/><path d="M451.69,47.34H434.75V25.07h16.5v4.55H439.61v4.29h11v4.36h-11v4.49h12.08Z" transform="translate(0)" fill="#4c2c93"/><path d="M126.81,47.31h-4.07L118,34.87l-4.62,12.44h-4.07L101,25.07h5.56l2.77,7.6,2,7.19,5-14.79h3.24l5.22,14.79,1.9-7.16,2.64-7.63h5.56Z" transform="translate(0)" fill="#4c2c93"/><path d="M153.63,47.88c-7.11,0-12-4.43-12-11.68s4.89-11.68,12-11.68,12,4.42,12,11.68S160.75,47.88,153.63,47.88Zm0-18.9a7,7,0,0,0-7.15,7.22,7.15,7.15,0,1,0,14.3,0A6.9,6.9,0,0,0,153.63,29Z" transform="translate(0)" fill="#4c2c93"/><path d="M196.34,47.34h-5.51L185.15,40h-3.59v7.31h-5V25.07h10.55c5.37,0,8.23,3.59,8.23,7.51,0,2.89-.89,5.47-5.15,7L196.34,47Zm-14.78-18v6.5h5.65a3.1,3.1,0,0,0,3.28-3.12,3.28,3.28,0,0,0-3.34-3.38Z" transform="translate(0)" fill="#4c2c93"/><path d="M213.18,25.07V42.79h11.13v4.55H208.22V25.07Z" transform="translate(0)" fill="#4c2c93"/><path d="M245,25.07c7.66,0,11.06,5.15,11.06,11S252.78,47.34,245,47.34h-9.12V25.07Zm-4.22,17.69H245c4.84,0,6.17-3.57,6.17-6.78s-1.53-6.43-6.17-6.43h-4.22Z" transform="translate(0)" fill="#4c2c93"/><path d="M303.86,31.88,297,40.53h-.89l-6.64-8.72V47.37h-5V25.1h5.68l6.49,8.56,6.52-8.56h5.62V47.37h-5Z" transform="translate(0)" fill="#4c2c93"/><path d="M333.1,47.88c-7.12,0-12-4.43-12-11.68s4.89-11.68,12-11.68,12,4.42,12,11.68S340.22,47.88,333.1,47.88Zm0-18.9a7,7,0,0,0-7.16,7.22,7.15,7.15,0,1,0,14.3,0A6.9,6.9,0,0,0,333.1,29Z" transform="translate(0)" fill="#4c2c93"/><path d="M367.91,25.07c4.22,0,7.72,1.91,7.72,6a4.77,4.77,0,0,1-2.95,4.56,5.61,5.61,0,0,1,3.52,6.45c-.66,3.6-3.65,5.22-8.1,5.22H356.94V25.07Zm-6.11,8.65h6c1.94,0,2.9-.79,2.9-2.1s-1-2.26-2.83-2.26H361.8Zm0,9.29h6.11c2.23,0,3.28-1,3.28-2.54s-1.15-2.61-3.34-2.61h-6V43Z" transform="translate(0)" fill="#4c2c93"/><path d="M393.12,25.07h-4.93V47.34h4.93Z" transform="translate(0)" fill="#4c2c93"/><path d="M412.06,25.07V42.79h11.12v4.55H407.1V25.07Z" transform="translate(0)" fill="#4c2c93"/><path d="M451.69,47.34H434.75V25.07h16.5v4.55H439.61v4.29h11v4.36h-11v4.49h12.08Z" transform="translate(0)" fill="#4c2c93"/></svg>