<svg id="Layer_1" data-name="Layer 1" xmlns="http://www.w3.org/2000/svg" xmlns:xlink="http://www.w3.org/1999/xlink" viewBox="0 0 233.59 133.72"><defs><clipPath id="clip-path" transform="translate(-0.7 -0.64)"><rect x="66.61" y="0.64" width="102.22" height="102.22" fill="none"/></clipPath><linearGradient id="linear-gradient" x1="117.89" y1="73.06" x2="110.22" y2="13.19" gradientTransform="matrix(1, 0, 0, -1, 0, 137)" gradientUnits="userSpaceOnUse"><stop offset="0" stop-color="#7349cd"/><stop offset="1" stop-color="#2c1464"/></linearGradient><linearGradient id="linear-gradient-2" x1="90.71" y1="94.05" x2="144.73" y2="40.02" gradientTransform="matrix(1, 0, 0, -1, 0, 137)" gradientUnits="userSpaceOnUse"><stop offset="0" stop-color="#aa64f1"/><stop offset="1" stop-color="#363770"/></linearGradient><linearGradient id="linear-gradient-3" x1="138.49" y1="110.13" x2="138.49" y2="79.57" gradientTransform="matrix(1, 0, 0, -1, 0, 137)" gradientUnits="userSpaceOnUse"><stop offset="0" stop-color="#f38220"/><stop offset="1" stop-color="#f74d2f"/></linearGradient><linearGradient id="linear-gradient-4" x1="120.63" y1="119.04" x2="164.31" y2="75.36" gradientTransform="matrix(1, 0, 0, -1, 0, 137)" gradientUnits="userSpaceOnUse"><stop offset="0" stop-color="#ffbf6b"/><stop offset="1" stop-color="#f38220"/></linearGradient><linearGradient id="linear-gradient-5" x1="120.74" y1="158.98" x2="108.57" y2="80.39" gradientTransform="matrix(1, 0, 0, -1, 0, 137)" gradientUnits="userSpaceOnUse"><stop offset="0" stop-color="#f6532d"/><stop offset="1" stop-color="#d01b6c"/></linearGradient><linearGradient id="linear-gradient-6" x1="91.48" y1="129.18" x2="125.8" y2="78.31" gradientTransform="matrix(1, 0, 0, -1, 0, 137)" gradientUnits="userSpaceOnUse"><stop offset="0" stop-color="#ff2b8a"/><stop offset="1" stop-color="#d01b6c"/></linearGradient></defs><path d="M4.9,134.06.7,119.69H3.23l2.86,10.38L9,119.71l2.52,0,2.86,10.38,2.86-10.38h2.52l-4.19,14.37H13.15l-3-10.22L7.28,134.06Zm23.12.3a6.89,6.89,0,0,1-3.69-.94A6.27,6.27,0,0,1,22,130.79,9.73,9.73,0,0,1,22,123a6.21,6.21,0,0,1,2.36-2.63,6.89,6.89,0,0,1,3.69-1,6.89,6.89,0,0,1,3.69,1A6.17,6.17,0,0,1,34.08,123a9.73,9.73,0,0,1,0,7.82,6.23,6.23,0,0,1-2.37,2.63A6.89,6.89,0,0,1,28,134.36Zm0-2.27a4.14,4.14,0,0,0,2.41-.63,4,4,0,0,0,1.44-1.83,7,7,0,0,0,.49-2.75,7,7,0,0,0-.49-2.74,3.89,3.89,0,0,0-1.44-1.81,4.31,4.31,0,0,0-2.41-.67,4.13,4.13,0,0,0-2.4.64,4,4,0,0,0-1.45,1.82,7.32,7.32,0,0,0-.48,2.76,7.17,7.17,0,0,0,.48,2.74,4,4,0,0,0,1.44,1.81A4.33,4.33,0,0,0,28,132.09Zm9.87,2V119.69h5.93l.54,0a5.25,5.25,0,0,1,.61.06,4.42,4.42,0,0,1,2.06.83,3.87,3.87,0,0,1,1.2,1.62,5.49,5.49,0,0,1,.4,2.15,5.11,5.11,0,0,1-.89,3A3.93,3.93,0,0,1,45,129L44,129h-3.7v5Zm8.25,0-2.83-5.85,2.44-.54,3.11,6.39Zm-5.85-7.26h3.43l.45,0a2.92,2.92,0,0,0,.46-.08,1.85,1.85,0,0,0,.94-.53,2.12,2.12,0,0,0,.49-.86,3.13,3.13,0,0,0,.15-.94,3.17,3.17,0,0,0-.15-.94,2.12,2.12,0,0,0-.49-.86,1.78,1.78,0,0,0-.94-.53,1.64,1.64,0,0,0-.46-.07,3.54,3.54,0,0,0-.45,0H40.29Zm12,7.26V119.69h2.4V131.8H61v2.26Zm11.43,0V119.69H69c.36,0,.71,0,1,.07A5.45,5.45,0,0,1,72.9,121a6.26,6.26,0,0,1,1.8,2.52,9.59,9.59,0,0,1,0,6.73,6.3,6.3,0,0,1-1.8,2.53A5.44,5.44,0,0,1,70,134c-.33,0-.67.06-1,.07h-5.3Zm2.45-2.27h2.13c.2,0,.46,0,.76,0a6.32,6.32,0,0,0,.83-.08,2.88,2.88,0,0,0,1.66-.91,4.52,4.52,0,0,0,.93-1.75,7.26,7.26,0,0,0,.31-2.15,7.5,7.5,0,0,0-.31-2.2,4.24,4.24,0,0,0-1-1.72,2.86,2.86,0,0,0-1.64-.89A3.46,3.46,0,0,0,69,122c-.3,0-.56,0-.76,0H66.14Zm17.51,2.27V119.69h2.17l5,10.18,5-10.18h2.16v14.37H95.68v-9.21l-4.41,9.21h-1l-4.4-9.21v9.21Zm24.15.3a6.89,6.89,0,0,1-3.69-.94,6.23,6.23,0,0,1-2.37-2.63,9.73,9.73,0,0,1,0-7.82,6.17,6.17,0,0,1,2.37-2.63,7.64,7.64,0,0,1,7.38,0,6.09,6.09,0,0,1,2.36,2.63,9.62,9.62,0,0,1,0,7.82,6.14,6.14,0,0,1-2.36,2.63A6.93,6.93,0,0,1,107.8,134.36Zm0-2.27a4.13,4.13,0,0,0,2.4-.63,4,4,0,0,0,1.45-1.83,7.22,7.22,0,0,0,.49-2.75,7.13,7.13,0,0,0-.49-2.74,3.85,3.85,0,0,0-1.45-1.81,4.3,4.3,0,0,0-2.4-.67,4.14,4.14,0,0,0-2.41.64,3.92,3.92,0,0,0-1.44,1.82,7.32,7.32,0,0,0-.48,2.76,7.17,7.17,0,0,0,.48,2.74,4,4,0,0,0,1.43,1.81A4.36,4.36,0,0,0,107.8,132.09Zm9.86,2V119.69h5.7a4.43,4.43,0,0,1,2.39.59,3.65,3.65,0,0,1,1.38,1.49,4,4,0,0,1,.46,1.87,3.46,3.46,0,0,1-.57,2,2.77,2.77,0,0,1-1.52,1.12v-.5a3.28,3.28,0,0,1,2,1.28,3.75,3.75,0,0,1,.71,2.23,4.76,4.76,0,0,1-.49,2.23,3.52,3.52,0,0,1-1.46,1.5,4.75,4.75,0,0,1-2.37.54Zm2.44-2.27h3.54a2.6,2.6,0,0,0,1.13-.24,1.93,1.93,0,0,0,1.06-1.83,2.21,2.21,0,0,0-.24-1,1.9,1.9,0,0,0-.73-.73,2.3,2.3,0,0,0-1.15-.28H120.1Zm0-6.36h3.23a2.12,2.12,0,0,0,.93-.2,1.54,1.54,0,0,0,.65-.59,1.8,1.8,0,0,0,.24-1,1.72,1.72,0,0,0-.48-1.24,1.75,1.75,0,0,0-1.34-.5H120.1Zm11.35,8.63V119.69h2.4v14.37Zm6.59,0V119.69h2.4V131.8h6.35v2.26Zm11.44,0V119.69h9.27V122h-6.87v3.54h5.68v2.25h-5.68v4.06h6.87v2.26Zm21.11,0V122h-4.65v-2.26h11.7V122H173v12.11Zm15.72.3a6.89,6.89,0,0,1-3.69-.94,6.3,6.3,0,0,1-2.37-2.63,9.84,9.84,0,0,1,0-7.82,6.24,6.24,0,0,1,2.37-2.63,7.64,7.64,0,0,1,7.38,0,6.17,6.17,0,0,1,2.37,2.63,9.73,9.73,0,0,1,0,7.82,6.23,6.23,0,0,1-2.37,2.63A6.89,6.89,0,0,1,186.31,134.36Zm0-2.27a4.11,4.11,0,0,0,2.4-.63,4,4,0,0,0,1.45-1.83,7,7,0,0,0,.49-2.75,7,7,0,0,0-.49-2.74,3.85,3.85,0,0,0-1.45-1.81,4.27,4.27,0,0,0-2.4-.67,4.11,4.11,0,0,0-2.4.64,4,4,0,0,0-1.45,1.82,7.32,7.32,0,0,0-.48,2.76,7.17,7.17,0,0,0,.48,2.74,4,4,0,0,0,1.44,1.81A4.33,4.33,0,0,0,186.31,132.09Zm9.87,2V119.69h2.4v6.67l5.74-6.67h3l-6.17,7,6.59,7.32h-3.05l-6.06-6.7v6.7Zm13.91,0V119.69h9.28V122H212.5v3.54h5.67v2.25H212.5v4.06h6.87v2.26Zm12.67,0V119.69h2.44l6.66,10.13V119.69h2.44v14.37h-2.44l-6.66-10.13v10.13Z" transform="translate(-0.7 -0.64)" fill="#fff"/><g clip-path="url(#clip-path)"><path d="M160.67,65.24h-60L97.14,76.6h51.58A39.73,39.73,0,0,1,80.33,65.24H68.42a51.11,51.11,0,0,0,98.6,0Z" transform="translate(-0.7 -0.64)" fill="#fff"/><path d="M160.67,65.24h-60L97.14,76.6h51.58A39.73,39.73,0,0,1,80.33,65.24H68.42a51.11,51.11,0,0,0,98.6,0Z" transform="translate(-0.7 -0.64)" fill="url(#linear-gradient)"/><path d="M160.67,65.24h-60L97.14,76.6h51.58A39.73,39.73,0,0,1,80.33,65.24H68.42a51.11,51.11,0,0,0,98.6,0Z" transform="translate(-0.7 -0.64)" fill="url(#linear-gradient-2)"/><path d="M162.37,26.91H111.69l-3.55,11.35h47a39.3,39.3,0,0,1,2.36,13.49,40,40,0,0,1-.4,5.68h11.45a51.2,51.2,0,0,0-6.15-30.52Z" transform="translate(-0.7 -0.64)" fill="#fff"/><path d="M162.37,26.91H111.69l-3.55,11.35h47a39.3,39.3,0,0,1,2.36,13.49,40,40,0,0,1-.4,5.68h11.45a51.2,51.2,0,0,0-6.15-30.52Z" transform="translate(-0.7 -0.64)" fill="url(#linear-gradient-3)"/><path d="M162.37,26.91H111.69l-3.55,11.35h47a39.3,39.3,0,0,1,2.36,13.49,40,40,0,0,1-.4,5.68h11.45a51.2,51.2,0,0,0-6.15-30.52Z" transform="translate(-0.7 -0.64)" fill="url(#linear-gradient-4)"/><path d="M117.72,12a39.53,39.53,0,0,1,23.64,7.81h16.23A51.09,51.09,0,0,0,66.93,57.43h60.73l3.55-11.36H78.38A39.81,39.81,0,0,1,117.72,12Z" transform="translate(-0.7 -0.64)" fill="#fff"/><path d="M117.72,12a39.53,39.53,0,0,1,23.64,7.81h16.23A51.09,51.09,0,0,0,66.93,57.43h60.73l3.55-11.36H78.38A39.81,39.81,0,0,1,117.72,12Z" transform="translate(-0.7 -0.64)" fill="url(#linear-gradient-5)"/><path d="M117.72,12a39.53,39.53,0,0,1,23.64,7.81h16.23A51.09,51.09,0,0,0,66.93,57.43h60.73l3.55-11.36H78.38A39.81,39.81,0,0,1,117.72,12Z" transform="translate(-0.7 -0.64)" fill="url(#linear-gradient-6)"/></g></svg>