<svg id="Layer_1" data-name="Layer 1" xmlns="http://www.w3.org/2000/svg" xmlns:xlink="http://www.w3.org/1999/xlink" viewBox="0 0 60.77 60.77"><defs><clipPath id="clip-path" transform="translate(-2.11 -2.11)"><rect x="2.11" y="2.11" width="60.77" height="60.77" fill="none"/></clipPath><linearGradient id="linear-gradient" x1="32.6" y1="27.25" x2="28.04" y2="-8.34" gradientTransform="matrix(1, 0, 0, -1, 0, 67)" gradientUnits="userSpaceOnUse"><stop offset="0" stop-color="#7349cd"/><stop offset="1" stop-color="#2c1464"/></linearGradient><linearGradient id="linear-gradient-2" x1="16.44" y1="39.73" x2="48.56" y2="7.61" gradientTransform="matrix(1, 0, 0, -1, 0, 67)" gradientUnits="userSpaceOnUse"><stop offset="0" stop-color="#aa64f1"/><stop offset="1" stop-color="#363770"/></linearGradient><linearGradient id="linear-gradient-3" x1="44.85" y1="49.29" x2="44.85" y2="31.12" gradientTransform="matrix(1, 0, 0, -1, 0, 67)" gradientUnits="userSpaceOnUse"><stop offset="0" stop-color="#f38220"/><stop offset="1" stop-color="#f74d2f"/></linearGradient><linearGradient id="linear-gradient-4" x1="34.23" y1="54.59" x2="60.2" y2="28.62" gradientTransform="matrix(1, 0, 0, -1, 0, 67)" gradientUnits="userSpaceOnUse"><stop offset="0" stop-color="#ffbf6b"/><stop offset="1" stop-color="#f38220"/></linearGradient><linearGradient id="linear-gradient-5" x1="34.29" y1="78.33" x2="27.06" y2="31.61" gradientTransform="matrix(1, 0, 0, -1, 0, 67)" gradientUnits="userSpaceOnUse"><stop offset="0" stop-color="#f6532d"/><stop offset="1" stop-color="#d01b6c"/></linearGradient><linearGradient id="linear-gradient-6" x1="16.9" y1="60.62" x2="37.3" y2="30.38" gradientTransform="matrix(1, 0, 0, -1, 0, 67)" gradientUnits="userSpaceOnUse"><stop offset="0" stop-color="#ff2b8a"/><stop offset="1" stop-color="#d01b6c"/></linearGradient></defs><g clip-path="url(#clip-path)"><path d="M58,40.52H22.37l-2.11,6.75H50.93a23.62,23.62,0,0,1-40.66-6.75H3.19a30.39,30.39,0,0,0,58.62,0Z" transform="translate(-2.11 -2.11)" fill="#fff"/><path d="M58,40.52H22.37l-2.11,6.75H50.93a23.62,23.62,0,0,1-40.66-6.75H3.19a30.39,30.39,0,0,0,58.62,0Z" transform="translate(-2.11 -2.11)" fill="url(#linear-gradient)"/><path d="M58,40.52H22.37l-2.11,6.75H50.93a23.62,23.62,0,0,1-40.66-6.75H3.19a30.39,30.39,0,0,0,58.62,0Z" transform="translate(-2.11 -2.11)" fill="url(#linear-gradient-2)"/><path d="M59.05,17.73H28.91L26.8,24.48H54.73a23.35,23.35,0,0,1,1.4,8,23.91,23.91,0,0,1-.24,3.38H62.7a31.91,31.91,0,0,0,.19-3.38A30.29,30.29,0,0,0,59.05,17.73Z" transform="translate(-2.11 -2.11)" fill="#fff"/><path d="M59.05,17.73H28.91L26.8,24.48H54.73a23.35,23.35,0,0,1,1.4,8,23.91,23.91,0,0,1-.24,3.38H62.7a31.91,31.91,0,0,0,.19-3.38A30.29,30.29,0,0,0,59.05,17.73Z" transform="translate(-2.11 -2.11)" fill="url(#linear-gradient-3)"/><path d="M59.05,17.73H28.91L26.8,24.48H54.73a23.35,23.35,0,0,1,1.4,8,23.91,23.91,0,0,1-.24,3.38H62.7a31.91,31.91,0,0,0,.19-3.38A30.29,30.29,0,0,0,59.05,17.73Z" transform="translate(-2.11 -2.11)" fill="url(#linear-gradient-4)"/><path d="M32.5,8.87a23.47,23.47,0,0,1,14,4.64H56.2a30.37,30.37,0,0,0-54.09,19,31.91,31.91,0,0,0,.19,3.38H38.41l2.11-6.76H9.11A23.66,23.66,0,0,1,32.5,8.87Z" transform="translate(-2.11 -2.11)" fill="#fff"/><path d="M32.5,8.87a23.47,23.47,0,0,1,14,4.64H56.2a30.37,30.37,0,0,0-54.09,19,31.91,31.91,0,0,0,.19,3.38H38.41l2.11-6.76H9.11A23.66,23.66,0,0,1,32.5,8.87Z" transform="translate(-2.11 -2.11)" fill="url(#linear-gradient-5)"/><path d="M32.5,8.87a23.47,23.47,0,0,1,14,4.64H56.2a30.37,30.37,0,0,0-54.09,19,31.91,31.91,0,0,0,.19,3.38H38.41l2.11-6.76H9.11A23.66,23.66,0,0,1,32.5,8.87Z" transform="translate(-2.11 -2.11)" fill="url(#linear-gradient-6)"/></g></svg>