<svg id="Layer_1" data-name="Layer 1" xmlns="http://www.w3.org/2000/svg" xmlns:xlink="http://www.w3.org/1999/xlink" viewBox="0 0 326 60.77"><defs><clipPath id="clip-path" transform="translate(-2 -1.61)"><rect x="2" y="1.61" width="60.77" height="60.77" fill="none"/></clipPath><linearGradient id="linear-gradient" x1="32.49" y1="26.75" x2="27.92" y2="-8.84" gradientTransform="matrix(1, 0, 0, -1, 0, 66)" gradientUnits="userSpaceOnUse"><stop offset="0" stop-color="#7349cd"/><stop offset="1" stop-color="#2c1464"/></linearGradient><linearGradient id="linear-gradient-2" x1="16.33" y1="39.23" x2="48.45" y2="7.11" gradientTransform="matrix(1, 0, 0, -1, 0, 66)" gradientUnits="userSpaceOnUse"><stop offset="0" stop-color="#aa64f1"/><stop offset="1" stop-color="#363770"/></linearGradient><linearGradient id="linear-gradient-3" x1="44.73" y1="48.79" x2="44.73" y2="30.62" gradientTransform="matrix(1, 0, 0, -1, 0, 66)" gradientUnits="userSpaceOnUse"><stop offset="0" stop-color="#f38220"/><stop offset="1" stop-color="#f74d2f"/></linearGradient><linearGradient id="linear-gradient-4" x1="34.12" y1="54.09" x2="60.08" y2="28.12" gradientTransform="matrix(1, 0, 0, -1, 0, 66)" gradientUnits="userSpaceOnUse"><stop offset="0" stop-color="#ffbf6b"/><stop offset="1" stop-color="#f38220"/></linearGradient><linearGradient id="linear-gradient-5" x1="34.18" y1="77.83" x2="26.94" y2="31.11" gradientTransform="matrix(1, 0, 0, -1, 0, 66)" gradientUnits="userSpaceOnUse"><stop offset="0" stop-color="#f6532d"/><stop offset="1" stop-color="#d01b6c"/></linearGradient><linearGradient id="linear-gradient-6" x1="16.79" y1="60.12" x2="37.19" y2="29.88" gradientTransform="matrix(1, 0, 0, -1, 0, 66)" gradientUnits="userSpaceOnUse"><stop offset="0" stop-color="#ff2b8a"/><stop offset="1" stop-color="#d01b6c"/></linearGradient></defs><path d="M81.05,41.32,76.53,25.85h2.72L82.33,37,85.4,25.87l2.72,0L91.2,37l3.08-11.17H97L92.48,41.32H89.93l-3.17-11-3.15,11Zm24.89.32a7.48,7.48,0,0,1-4-1,6.76,6.76,0,0,1-2.55-2.84,9.49,9.49,0,0,1-.88-4.21,9.52,9.52,0,0,1,.88-4.21A6.65,6.65,0,0,1,102,26.55a8.24,8.24,0,0,1,7.94,0,6.58,6.58,0,0,1,2.55,2.82,9.52,9.52,0,0,1,.89,4.21,9.49,9.49,0,0,1-.89,4.21,6.69,6.69,0,0,1-2.55,2.84A7.48,7.48,0,0,1,105.94,41.64Zm0-2.44a4.41,4.41,0,0,0,2.59-.69,4.25,4.25,0,0,0,1.56-2,7.76,7.76,0,0,0,.52-3,7.54,7.54,0,0,0-.52-2.94,4.23,4.23,0,0,0-1.56-1.95,4.57,4.57,0,0,0-2.59-.72,4.48,4.48,0,0,0-2.59.68,4.35,4.35,0,0,0-1.56,2,8.84,8.84,0,0,0,0,5.92,4.23,4.23,0,0,0,1.55,1.94A4.63,4.63,0,0,0,105.94,39.2Zm10.62,2.12V25.85H123l.58,0a4.31,4.31,0,0,1,.66.07,4.55,4.55,0,0,1,2.21.89,4.09,4.09,0,0,1,1.3,1.74,6,6,0,0,1,.43,2.32,5.5,5.5,0,0,1-1,3.25,4.24,4.24,0,0,1-2.93,1.68l-1.11.09h-4v5.41Zm8.88,0-3-6.3,2.64-.58,3.35,6.88Zm-6.29-7.82h3.69l.49,0a3.3,3.3,0,0,0,.49-.09,2,2,0,0,0,1-.57,2.31,2.31,0,0,0,.53-.92,3.32,3.32,0,0,0,.16-1,3.27,3.27,0,0,0-.16-1,2.38,2.38,0,0,0-.53-.94,2,2,0,0,0-1-.57,2.41,2.41,0,0,0-.49-.07l-.49,0h-3.69ZM132,41.32V25.85h2.59v13h6.83v2.43Zm12.31,0V25.85H150a10,10,0,0,1,1.11.08,5.76,5.76,0,0,1,3.11,1.31A6.69,6.69,0,0,1,156.19,30a10.41,10.41,0,0,1,0,7.24,6.83,6.83,0,0,1-1.93,2.73,5.91,5.91,0,0,1-3.11,1.3c-.35,0-.72.07-1.1.08h-5.71ZM147,38.88h2.3l.82,0a6.88,6.88,0,0,0,.89-.1,3.06,3.06,0,0,0,1.78-1,4.67,4.67,0,0,0,1-1.88,8,8,0,0,0,.34-2.32,8.26,8.26,0,0,0-.34-2.36,4.56,4.56,0,0,0-1-1.86,3.05,3.05,0,0,0-1.76-.95,4.55,4.55,0,0,0-.89-.1c-.33,0-.6,0-.82,0H147Zm18.86,2.44V25.85h2.33l5.35,10.95,5.35-10.95h2.33V41.32h-2.42V31.4L174,41.32h-1l-4.73-9.92v9.92Zm26,.32a7.48,7.48,0,0,1-4-1,6.76,6.76,0,0,1-2.55-2.84,9.49,9.49,0,0,1-.88-4.21,9.52,9.52,0,0,1,.88-4.21,6.65,6.65,0,0,1,2.55-2.82,8.24,8.24,0,0,1,7.94,0,6.58,6.58,0,0,1,2.55,2.82,9.52,9.52,0,0,1,.89,4.21,9.49,9.49,0,0,1-.89,4.21,6.69,6.69,0,0,1-2.55,2.84A7.48,7.48,0,0,1,191.82,41.64Zm0-2.44a4.41,4.41,0,0,0,2.59-.69,4.25,4.25,0,0,0,1.56-2,7.76,7.76,0,0,0,.52-3,7.54,7.54,0,0,0-.52-2.94,4.23,4.23,0,0,0-1.56-1.95,4.57,4.57,0,0,0-2.59-.72,4.48,4.48,0,0,0-2.59.68,4.33,4.33,0,0,0-1.55,2,7.67,7.67,0,0,0-.52,3,7.67,7.67,0,0,0,.52,3,4.15,4.15,0,0,0,1.54,1.94A4.63,4.63,0,0,0,191.82,39.2Zm10.62,2.12V25.85h6.14a4.71,4.71,0,0,1,2.56.63,3.87,3.87,0,0,1,1.49,1.6,4.47,4.47,0,0,1,.5,2,3.77,3.77,0,0,1-.61,2.17,2.93,2.93,0,0,1-1.65,1.21v-.54a3.59,3.59,0,0,1,2.22,1.38,4.06,4.06,0,0,1,.76,2.4,5.18,5.18,0,0,1-.53,2.4,3.77,3.77,0,0,1-1.57,1.62,5.2,5.2,0,0,1-2.55.58Zm2.62-2.44h3.82a2.66,2.66,0,0,0,1.21-.27,2.09,2.09,0,0,0,.84-.77,2.33,2.33,0,0,0,.31-1.2,2.28,2.28,0,0,0-.27-1.11,2,2,0,0,0-.78-.79,2.45,2.45,0,0,0-1.24-.3h-3.89Zm0-6.85h3.48a2.3,2.3,0,0,0,1-.22,1.58,1.58,0,0,0,.7-.63,2,2,0,0,0,.26-1A1.86,1.86,0,0,0,210,28.8a1.92,1.92,0,0,0-1.44-.53h-3.48Zm12.22,9.29V25.85h2.59V41.32Zm7.1,0V25.85H227v13h6.84v2.43Zm12.31,0V25.85h10v2.43h-7.4v3.81h6.11v2.43h-6.11v4.37h7.4v2.43Zm22.73,0v-13h-5V25.85H267v2.43h-5v13Zm16.92.32a7.51,7.51,0,0,1-4-1,6.82,6.82,0,0,1-2.55-2.84,9.62,9.62,0,0,1-.88-4.21,9.66,9.66,0,0,1,.88-4.21,6.71,6.71,0,0,1,2.55-2.82,8.26,8.26,0,0,1,7.95,0,6.56,6.56,0,0,1,2.54,2.82,9.52,9.52,0,0,1,.89,4.21,9.49,9.49,0,0,1-.89,4.21,6.67,6.67,0,0,1-2.54,2.84A7.54,7.54,0,0,1,276.34,41.64Zm0-2.44a4.41,4.41,0,0,0,2.59-.69,4.19,4.19,0,0,0,1.56-2,7.76,7.76,0,0,0,.52-3,7.54,7.54,0,0,0-.52-2.94,4.16,4.16,0,0,0-1.56-1.95,4.57,4.57,0,0,0-2.59-.72,4.48,4.48,0,0,0-2.59.68,4.33,4.33,0,0,0-1.55,2,7.67,7.67,0,0,0-.52,3,7.67,7.67,0,0,0,.52,3,4.21,4.21,0,0,0,1.54,1.94A4.63,4.63,0,0,0,276.34,39.2ZM287,41.32V25.85h2.59V33l6.18-7.17h3.18l-6.65,7.58,7.1,7.89h-3.29l-6.52-7.22v7.22Zm15,0V25.85h10v2.43h-7.4v3.81h6.11v2.43h-6.11v4.37h7.4v2.43Zm13.63,0V25.85h2.62l7.18,10.9V25.85H328V41.32h-2.62L318.2,30.41V41.32Z" transform="translate(-2 -1.61)" fill="#fff"/><g clip-path="url(#clip-path)"><path d="M57.92,40H22.26l-2.11,6.75H50.82A23.62,23.62,0,0,1,10.15,40H3.08A30.39,30.39,0,0,0,61.7,40Z" transform="translate(-2 -1.61)" fill="#fff"/><path d="M57.92,40H22.26l-2.11,6.75H50.82A23.62,23.62,0,0,1,10.15,40H3.08A30.39,30.39,0,0,0,61.7,40Z" transform="translate(-2 -1.61)" fill="url(#linear-gradient)"/><path d="M57.92,40H22.26l-2.11,6.75H50.82A23.62,23.62,0,0,1,10.15,40H3.08A30.39,30.39,0,0,0,61.7,40Z" transform="translate(-2 -1.61)" fill="url(#linear-gradient-2)"/><path d="M58.93,17.23H28.8L26.69,24H54.62A23.59,23.59,0,0,1,56,32a23.91,23.91,0,0,1-.24,3.38h6.81A31.89,31.89,0,0,0,62.77,32,30.07,30.07,0,0,0,58.93,17.23Z" transform="translate(-2 -1.61)" fill="#fff"/><path d="M58.93,17.23H28.8L26.69,24H54.62A23.59,23.59,0,0,1,56,32a23.91,23.91,0,0,1-.24,3.38h6.81A31.89,31.89,0,0,0,62.77,32,30.07,30.07,0,0,0,58.93,17.23Z" transform="translate(-2 -1.61)" fill="url(#linear-gradient-3)"/><path d="M58.93,17.23H28.8L26.69,24H54.62A23.59,23.59,0,0,1,56,32a23.91,23.91,0,0,1-.24,3.38h6.81A31.89,31.89,0,0,0,62.77,32,30.07,30.07,0,0,0,58.93,17.23Z" transform="translate(-2 -1.61)" fill="url(#linear-gradient-4)"/><path d="M32.39,8.37a23.47,23.47,0,0,1,14,4.64h9.65A30.37,30.37,0,0,0,2,32a29.46,29.46,0,0,0,.19,3.38h36.1l2.11-6.76H9A23.64,23.64,0,0,1,32.39,8.37Z" transform="translate(-2 -1.61)" fill="#fff"/><path d="M32.39,8.37a23.47,23.47,0,0,1,14,4.64h9.65A30.37,30.37,0,0,0,2,32a29.46,29.46,0,0,0,.19,3.38h36.1l2.11-6.76H9A23.64,23.64,0,0,1,32.39,8.37Z" transform="translate(-2 -1.61)" fill="url(#linear-gradient-5)"/><path d="M32.39,8.37a23.47,23.47,0,0,1,14,4.64h9.65A30.37,30.37,0,0,0,2,32a29.46,29.46,0,0,0,.19,3.38h36.1l2.11-6.76H9A23.64,23.64,0,0,1,32.39,8.37Z" transform="translate(-2 -1.61)" fill="url(#linear-gradient-6)"/></g></svg>